<?xml version="1.0" encoding="utf-8"?>
<!-- Generator: Adobe Illustrator 28.0.0, SVG Export Plug-In . SVG Version: 6.00 Build 0)  -->
<svg version="1.1" id="Слой_1" xmlns="http://www.w3.org/2000/svg" xmlns:xlink="http://www.w3.org/1999/xlink" x="0px" y="0px"
	 viewBox="0 0 1920 1080" style="enable-background:new 0 0 1920 1080;" xml:space="preserve">
<style type="text/css">
	.st0{fill:url(#SVGID_1_);}
	.st1{fill:#D3FF24;}
	.st2{fill:#9E0FFA;}
	.st3{fill:#6B48FF;}
	.st4{fill:#E8E8E8;}
	.st5{fill:#FF541F;}
	.st6{fill:#BCACFC;}
	.st7{fill:#FF1977;}
	.st8{fill:#82003D;}
	.st9{fill:none;stroke:#FFFFFF;stroke-width:1.5;stroke-miterlimit:10;}
	.st10{fill:none;stroke:#FFFFFF;stroke-width:1.5;stroke-linecap:round;stroke-linejoin:round;stroke-miterlimit:10;}
	.st11{fill:#FFFFFF;}
	.st12{clip-path:url(#SVGID_00000101814702167617669860000005144806792084500639_);fill:#FF541F;}
	.st13{clip-path:url(#SVGID_00000101814702167617669860000005144806792084500639_);}
	.st14{fill:none;}
	.st15{fill:url(#SVGID_00000097462712147945732220000012121240698729509248_);}
	.st16{clip-path:url(#SVGID_00000044164521928665118750000010391486827461737895_);}
	.st17{fill:#1C1720;}
	.st18{clip-path:url(#SVGID_00000000203960192884596310000006986047052454794372_);}
	.st19{fill:#1C1C1C;}
	.st20{opacity:0.43;fill:url(#SVGID_00000062161268546244586260000009593482113822630804_);}
	.st21{clip-path:url(#SVGID_00000163057218912539712220000005351842165441984926_);}
	.st22{opacity:0.43;fill:url(#SVGID_00000166641218742594078880000005804071239307886521_);}
	
		.st23{clip-path:url(#SVGID_00000029038396454782985550000008011560312224219538_);fill:url(#SVGID_00000139285005712027154950000011757045100648085891_);}
	.st24{fill:url(#SVGID_00000098200860463959226460000010894561822692108704_);}
	.st25{fill:url(#SVGID_00000119837376506930744210000017283597736927533239_);}
	.st26{fill:url(#SVGID_00000157304173086788627520000012373550555203874703_);}
	.st27{clip-path:url(#SVGID_00000110443353441995108010000012565163803882208129_);fill:#FF1977;}
	.st28{clip-path:url(#SVGID_00000112591354342193354370000011196775306250405512_);fill:#FF541F;}
	.st29{clip-path:url(#SVGID_00000112591354342193354370000011196775306250405512_);fill:#6B48FF;}
	.st30{clip-path:url(#SVGID_00000112591354342193354370000011196775306250405512_);fill:#D3FF24;}
	.st31{fill:#990FF2;}
	.st32{clip-path:url(#SVGID_00000145757465922493086190000018030025909306442911_);}
	.st33{clip-path:url(#SVGID_00000150794557960378842220000014090284485579900551_);}
	.st34{clip-path:url(#SVGID_00000088855432102204557430000002484829785641877153_);}
	.st35{opacity:0.5;fill:#FFFFFF;}
	.st36{clip-path:url(#SVGID_00000089564291563395322380000004711223328069395899_);fill:#FF1977;}
	.st37{clip-path:url(#SVGID_00000089564291563395322380000004711223328069395899_);}
	.st38{fill:url(#SVGID_00000124121228042887471990000012082913442292569535_);}
	
		.st39{clip-path:url(#SVGID_00000146492514247833085820000013830184784319382670_);fill:url(#SVGID_00000123428776652955687570000014249076841433353631_);}
	.st40{fill:url(#SVGID_00000083779025339464265410000013209774365392638894_);}
	.st41{fill:url(#SVGID_00000170980758133849943450000004214794777661180584_);}
	.st42{fill:url(#SVGID_00000010996981046385930100000014095927044785973156_);}
	.st43{fill:url(#SVGID_00000062907358499270576360000006968079528916930206_);}
	.st44{fill:url(#SVGID_00000005235979044450120320000007467716123741780133_);}
	.st45{fill:url(#SVGID_00000136369468608293095780000002403472434419305090_);}
	.st46{clip-path:url(#SVGID_00000060012600078216866830000016148240099589695164_);}
	.st47{fill:none;stroke:#FFFFFF;stroke-width:2;stroke-miterlimit:10;}
	.st48{fill:url(#SVGID_00000111914262779518041970000011427918209087977094_);}
	.st49{fill:url(#SVGID_00000077297065973612563250000016888958268524675488_);}
	.st50{filter:url(#Adobe_OpacityMaskFilter);}
	.st51{clip-path:url(#SVGID_00000089561390395613704470000005910101829017256104_);fill:#FF541F;}
	.st52{clip-path:url(#SVGID_00000089561390395613704470000005910101829017256104_);}
	.st53{fill:#030305;}
	.st54{fill:#FF5929;}
	.st55{fill:url(#SVGID_00000022522627693059023760000013756585068586737074_);}
	.st56{fill:url(#SVGID_00000166644214475340761810000017250822222901454247_);}
	
		.st57{clip-path:url(#SVGID_00000136372752351308424210000014226016871795486903_);fill:url(#SVGID_00000063627352879972313070000015355941562303067575_);}
	.st58{clip-path:url(#SVGID_00000035532452614791446740000010873285743175204009_);fill:#BCACFC;}
	.st59{clip-path:url(#SVGID_00000035532452614791446740000010873285743175204009_);}
	.st60{clip-path:url(#SVGID_00000054249357359810929510000003196583981259150254_);}
	.st61{opacity:0.4;}
	.st62{fill:none;stroke:#D3FF24;stroke-miterlimit:10;}
	.st63{fill:none;stroke:#808080;stroke-width:2;stroke-miterlimit:10;}
	.st64{fill:none;stroke:#808080;stroke-width:2;stroke-linejoin:round;stroke-miterlimit:10;}
	.st65{fill:#808080;}
	.st66{fill:url(#SVGID_00000124848769263125932400000007517035711715448974_);}
	.st67{clip-path:url(#SVGID_00000149360368023096617490000001779027070202289846_);fill:#FF541F;}
	.st68{clip-path:url(#SVGID_00000149360368023096617490000001779027070202289846_);fill:#6B48FF;}
	.st69{clip-path:url(#SVGID_00000149360368023096617490000001779027070202289846_);fill:#D3FF24;}
</style>
<g>
	<g>
		<polygon class="st1" points="222.2,133.7 498,659.2 760.7,448.5 		"/>
		<g>
			<polygon class="st1" points="648.5,946.3 497.8,659 297.4,481.2 110,631.5 			"/>
		</g>
	</g>
	<g>
		<rect x="910" y="326.9" class="st11" width="91.2" height="409.7"/>
		<path class="st11" d="M1396.8,464c0-40.8-14.4-75.4-41.7-99.9c-27-24.3-64.8-37.2-109.3-37.2h-167.2v409.7h91.2V600.5h69.6
			l70.5,136.1h101l-82.7-157.6C1371.2,557.5,1396.8,514.6,1396.8,464z M1304,464c0,36.4-25.5,59.8-65.1,59.8h-69.1V403.6h69.1
			C1279,403.6,1304,426.7,1304,464z"/>
		<path class="st11" d="M1718,588.7c-10.5,46.5-43.2,73.3-89.7,73.5c-0.2,0-0.4,0-0.5,0c-61.7,0-101.8-51-102.2-130
			c-0.4-79.3,39.9-130.7,102.7-131c0.2,0,0.4,0,0.5,0c44.8,0,77.9,27.1,88.7,72.6l0.4,1.7l92.1-0.4l-0.3-2.4
			c-5.4-44.1-24.9-81.5-56.3-108.3c-31.8-27.1-73.6-41.2-120.9-41.1c-60.5,0.3-111.2,20.3-146.7,57.8
			c-35.1,37.1-53.5,89.5-53.2,151.5c0.3,62.1,18.6,114.3,52.8,151c34.5,36.9,83.7,56.4,142.5,56.4c0.4,0,0.8,0,1.3,0
			c48.8-0.2,91.7-14.8,124.1-42.2c32.1-27.1,51.6-64.8,56.3-108.8l0.3-2.4l-91.5,0.4L1718,588.7z"/>
	</g>
</g>
</svg>
